<svg xmlns="http://www.w3.org/2000/svg" version="1.1" xmlns:xlink="http://www.w3.org/1999/xlink"
    xmlns:svgjs="http://svgjs.dev/svgjs" width="2000" height="1247" viewBox="0 0 2000 1247">
    <g transform="matrix(1,0,0,1,-1.2121212121212466,0.504858299595071)">
        <svg viewBox="0 0 396 247" data-background-color="#ffffff"
            preserveAspectRatio="xMidYMid meet" height="1247" width="2000"
            xmlns="http://www.w3.org/2000/svg" xmlns:xlink="http://www.w3.org/1999/xlink">
            <g id="tight-bounds" transform="matrix(1,0,0,1,0.2400000000000091,-0.09999999999999432)">
                <svg viewBox="0 0 395.52 247.2" height="247.2" width="395.52">
                    <g>
                        <svg></svg>
                    </g>
                    <g>
                        <svg viewBox="0 0 395.52 247.2" height="247.2" width="395.52">
                            <g transform="matrix(1,0,0,1,130.64214275618374,47.215199999999996)">
                                <svg viewBox="0 0 134.2357144876325 152.7696" height="152.7696"
                                    width="134.2357144876325">
                                    <g>
                                        <svg viewBox="0 0 134.2357144876325 152.7696"
                                            height="152.7696" width="134.2357144876325">
                                            <g>
                                                <svg viewBox="0 0 134.2357144876325 152.7696"
                                                    height="152.7696" width="134.2357144876325">
                                                    <g>
                                                        <svg
                                                            viewBox="0 0 134.2357144876325 152.7696"
                                                            height="152.7696"
                                                            width="134.2357144876325">
                                                            <g id="textblocktransform">
                                                                <svg
                                                                    viewBox="0 0 134.2357144876325 152.7696"
                                                                    height="152.7696"
                                                                    width="134.2357144876325"
                                                                    id="textblock">
                                                                    <g>
                                                                        <svg
                                                                            viewBox="0 0 134.2357144876325 152.7696"
                                                                            height="152.7696"
                                                                            width="134.2357144876325">
                                                                            <g
                                                                                transform="matrix(1,0,0,1,0,0)">
                                                                                <svg
                                                                                    width="134.2357144876325"
                                                                                    viewBox="1.7 -36.5 37.3 42.45"
                                                                                    height="152.7696"
                                                                                    data-palette-color="#f4f0f9">
                                                                                    <path
                                                                                        d="M30.25 5.95L30.25 5.95 14.5 5.95Q7.95 5.95 4.83 2.55 1.7-0.85 1.7-6.25L1.7-6.25 1.7-20.35Q1.7-23.1 2.5-25.1 3.3-27.1 4.85-28.45L4.85-28.45 11.3-33.9Q12.85-35.2 15.28-35.85 17.7-36.5 20.95-36.5L20.95-36.5 33.45-36.5Q34.65-36.5 35.2-35.95 35.75-35.4 35.75-34.2L35.75-34.2 35.75-28.15Q35.75-27.5 35.58-27.05 35.4-26.6 35.05-26.3L35.05-26.3 28.55-20.9Q28.35-20.7 27.93-20.55 27.5-20.4 27-20.4L27-20.4 20.5-20.4 20.5-13.2Q20.55-13.3 20.68-13.43 20.8-13.55 20.9-13.65L20.9-13.65 27.35-19.1Q27.6-19.3 28.03-19.43 28.45-19.55 28.95-19.55L28.95-19.55 36.7-19.55Q37.9-19.55 38.45-19 39-18.45 39-17.25L39-17.25 39-1.8Q39-1.15 38.83-0.7 38.65-0.25 38.3 0.05L38.3 0.05 31.8 5.45Q31.6 5.65 31.18 5.8 30.75 5.95 30.25 5.95ZM20.95 0L36.7 0Q37.65 0 38.08-0.43 38.5-0.85 38.5-1.8L38.5-1.8 38.5-17.25Q38.5-18.2 38.08-18.63 37.65-19.05 36.7-19.05L36.7-19.05 28.95-19.05Q28-19.05 27.58-18.63 27.15-18.2 27.15-17.25L27.15-17.25 27.15-9.45 22.3-9.45Q21.15-9.45 20.58-10.05 20-10.65 20-11.9L20-11.9 20-23.85Q20-25.1 20.75-25.73 21.5-26.35 23.05-26.35L23.05-26.35 33.45-26.35Q34.4-26.35 34.83-26.78 35.25-27.2 35.25-28.15L35.25-28.15 35.25-34.2Q35.25-35.15 34.83-35.58 34.4-36 33.45-36L33.45-36 20.95-36Q14.7-36 11.68-33.5 8.65-31 8.65-25.8L8.65-25.8 8.65-10.2Q8.65-5 11.68-2.5 14.7 0 20.95 0L20.95 0ZM33.05-4.5L23.1-4.5Q20.35-4.5 18.6-4.85 16.85-5.2 15.85-5.98 14.85-6.75 14.48-7.98 14.1-9.2 14.1-10.95L14.1-10.95 14.1-24.95Q14.1-28.5 15.7-30 17.3-31.5 22.1-31.5L22.1-31.5 30.75-31.5 30.75-31 22.1-31Q17.7-31 16.15-29.63 14.6-28.25 14.6-24.95L14.6-24.95 14.6-10.95Q14.6-7.7 16.32-6.35 18.05-5 23.1-5L23.1-5 32.55-5 32.55-14.55 33.05-14.55 33.05-4.5Z"
                                                                                        opacity="1"
                                                                                        transform="matrix(1,0,0,1,0,0)"
                                                                                        fill="#f4f0f9"
                                                                                        class="undefined-text-0"
                                                                                        data-fill-palette-color="primary"
                                                                                        id="text-0"></path>
                                                                                </svg>
                                                                            </g>
                                                                        </svg>
                                                                    </g>
                                                                </svg>
                                                            </g>
                                                        </svg>
                                                    </g>
                                                </svg>
                                            </g>
                                        </svg>
                                    </g>
                                </svg>
                            </g>
                            <path
                                d="M82.577 41.215L82.577 0 329.777 0 329.777 247.2 82.577 247.2 82.577 205.985 96.353 205.985 96.353 233.423 316 233.423 316 13.777 96.353 13.777 96.353 41.215Z"
                                fill="#f4f0f9" stroke="transparent"
                                data-fill-palette-color="primary"></path>
                        </svg>
                    </g>
                    <defs></defs>
                </svg>
                <rect width="395.52" height="247.2" fill="none" stroke="none" visibility="hidden"></rect>
            </g>
        </svg>
    </g>
</svg>